<mxfile host="app.diagrams.net" modified="2021-08-23T21:49:56.090Z" agent="5.0 (Windows NT 10.0; Win64; x64) AppleWebKit/537.36 (KHTML, like Gecko) Chrome/92.0.4515.159 Safari/537.36 Edg/92.0.902.78" etag="Y0fz9_ug1n168fv33zAH" version="14.9.8" type="github">
  <diagram id="YNw9ld2B1G3_4UrKVVp5" name="Page-1">
    <mxGraphModel dx="1221" dy="644" grid="1" gridSize="10" guides="1" tooltips="1" connect="1" arrows="1" fold="1" page="1" pageScale="1" pageWidth="827" pageHeight="1169" math="0" shadow="0">
      <root>
        <mxCell id="0" />
        <mxCell id="1" parent="0" />
        <mxCell id="mA5xvXXFpU_m65X2RSw0-1" value="categories" style="shape=table;startSize=30;container=1;collapsible=1;childLayout=tableLayout;fixedRows=1;rowLines=0;fontStyle=1;align=center;resizeLast=1;" vertex="1" parent="1">
          <mxGeometry x="60" y="300" width="130" height="90" as="geometry" />
        </mxCell>
        <mxCell id="mA5xvXXFpU_m65X2RSw0-2" value="" style="shape=partialRectangle;collapsible=0;dropTarget=0;pointerEvents=0;fillColor=none;top=0;left=0;bottom=1;right=0;points=[[0,0.5],[1,0.5]];portConstraint=eastwest;" vertex="1" parent="mA5xvXXFpU_m65X2RSw0-1">
          <mxGeometry y="30" width="130" height="30" as="geometry" />
        </mxCell>
        <mxCell id="mA5xvXXFpU_m65X2RSw0-3" value="PK" style="shape=partialRectangle;connectable=0;fillColor=none;top=0;left=0;bottom=0;right=0;fontStyle=1;overflow=hidden;" vertex="1" parent="mA5xvXXFpU_m65X2RSw0-2">
          <mxGeometry width="30" height="30" as="geometry" />
        </mxCell>
        <mxCell id="mA5xvXXFpU_m65X2RSw0-4" value="categoryid" style="shape=partialRectangle;connectable=0;fillColor=none;top=0;left=0;bottom=0;right=0;align=left;spacingLeft=6;fontStyle=5;overflow=hidden;" vertex="1" parent="mA5xvXXFpU_m65X2RSw0-2">
          <mxGeometry x="30" width="100" height="30" as="geometry" />
        </mxCell>
        <mxCell id="mA5xvXXFpU_m65X2RSw0-5" value="" style="shape=partialRectangle;collapsible=0;dropTarget=0;pointerEvents=0;fillColor=none;top=0;left=0;bottom=0;right=0;points=[[0,0.5],[1,0.5]];portConstraint=eastwest;" vertex="1" parent="mA5xvXXFpU_m65X2RSw0-1">
          <mxGeometry y="60" width="130" height="30" as="geometry" />
        </mxCell>
        <mxCell id="mA5xvXXFpU_m65X2RSw0-6" value="" style="shape=partialRectangle;connectable=0;fillColor=none;top=0;left=0;bottom=0;right=0;editable=1;overflow=hidden;" vertex="1" parent="mA5xvXXFpU_m65X2RSw0-5">
          <mxGeometry width="30" height="30" as="geometry" />
        </mxCell>
        <mxCell id="mA5xvXXFpU_m65X2RSw0-7" value="categoryname" style="shape=partialRectangle;connectable=0;fillColor=none;top=0;left=0;bottom=0;right=0;align=left;spacingLeft=6;overflow=hidden;" vertex="1" parent="mA5xvXXFpU_m65X2RSw0-5">
          <mxGeometry x="30" width="100" height="30" as="geometry" />
        </mxCell>
        <mxCell id="mA5xvXXFpU_m65X2RSw0-62" value="city" style="shape=table;startSize=30;container=1;collapsible=1;childLayout=tableLayout;fixedRows=1;rowLines=0;fontStyle=1;align=center;resizeLast=1;" vertex="1" parent="1">
          <mxGeometry x="348" y="300" width="130" height="90" as="geometry" />
        </mxCell>
        <mxCell id="mA5xvXXFpU_m65X2RSw0-63" value="" style="shape=partialRectangle;collapsible=0;dropTarget=0;pointerEvents=0;fillColor=none;top=0;left=0;bottom=1;right=0;points=[[0,0.5],[1,0.5]];portConstraint=eastwest;" vertex="1" parent="mA5xvXXFpU_m65X2RSw0-62">
          <mxGeometry y="30" width="130" height="30" as="geometry" />
        </mxCell>
        <mxCell id="mA5xvXXFpU_m65X2RSw0-64" value="PK" style="shape=partialRectangle;connectable=0;fillColor=none;top=0;left=0;bottom=0;right=0;fontStyle=1;overflow=hidden;" vertex="1" parent="mA5xvXXFpU_m65X2RSw0-63">
          <mxGeometry width="30" height="30" as="geometry" />
        </mxCell>
        <mxCell id="mA5xvXXFpU_m65X2RSw0-65" value="id" style="shape=partialRectangle;connectable=0;fillColor=none;top=0;left=0;bottom=0;right=0;align=left;spacingLeft=6;fontStyle=5;overflow=hidden;" vertex="1" parent="mA5xvXXFpU_m65X2RSw0-63">
          <mxGeometry x="30" width="100" height="30" as="geometry" />
        </mxCell>
        <mxCell id="mA5xvXXFpU_m65X2RSw0-66" value="" style="shape=partialRectangle;collapsible=0;dropTarget=0;pointerEvents=0;fillColor=none;top=0;left=0;bottom=0;right=0;points=[[0,0.5],[1,0.5]];portConstraint=eastwest;" vertex="1" parent="mA5xvXXFpU_m65X2RSw0-62">
          <mxGeometry y="60" width="130" height="30" as="geometry" />
        </mxCell>
        <mxCell id="mA5xvXXFpU_m65X2RSw0-67" value="" style="shape=partialRectangle;connectable=0;fillColor=none;top=0;left=0;bottom=0;right=0;editable=1;overflow=hidden;" vertex="1" parent="mA5xvXXFpU_m65X2RSw0-66">
          <mxGeometry width="30" height="30" as="geometry" />
        </mxCell>
        <mxCell id="mA5xvXXFpU_m65X2RSw0-68" value="name" style="shape=partialRectangle;connectable=0;fillColor=none;top=0;left=0;bottom=0;right=0;align=left;spacingLeft=6;overflow=hidden;" vertex="1" parent="mA5xvXXFpU_m65X2RSw0-66">
          <mxGeometry x="30" width="100" height="30" as="geometry" />
        </mxCell>
        <mxCell id="mA5xvXXFpU_m65X2RSw0-75" value="customer" style="shape=table;startSize=30;container=1;collapsible=1;childLayout=tableLayout;fixedRows=1;rowLines=0;fontStyle=1;align=center;resizeLast=1;" vertex="1" parent="1">
          <mxGeometry x="670" y="300" width="120" height="180" as="geometry" />
        </mxCell>
        <mxCell id="mA5xvXXFpU_m65X2RSw0-76" value="" style="shape=partialRectangle;collapsible=0;dropTarget=0;pointerEvents=0;fillColor=none;top=0;left=0;bottom=1;right=0;points=[[0,0.5],[1,0.5]];portConstraint=eastwest;" vertex="1" parent="mA5xvXXFpU_m65X2RSw0-75">
          <mxGeometry y="30" width="120" height="30" as="geometry" />
        </mxCell>
        <mxCell id="mA5xvXXFpU_m65X2RSw0-77" value="PK" style="shape=partialRectangle;connectable=0;fillColor=none;top=0;left=0;bottom=0;right=0;fontStyle=1;overflow=hidden;" vertex="1" parent="mA5xvXXFpU_m65X2RSw0-76">
          <mxGeometry width="30" height="30" as="geometry" />
        </mxCell>
        <mxCell id="mA5xvXXFpU_m65X2RSw0-78" value="id" style="shape=partialRectangle;connectable=0;fillColor=none;top=0;left=0;bottom=0;right=0;align=left;spacingLeft=6;fontStyle=5;overflow=hidden;" vertex="1" parent="mA5xvXXFpU_m65X2RSw0-76">
          <mxGeometry x="30" width="90" height="30" as="geometry" />
        </mxCell>
        <mxCell id="mA5xvXXFpU_m65X2RSw0-79" value="" style="shape=partialRectangle;collapsible=0;dropTarget=0;pointerEvents=0;fillColor=none;top=0;left=0;bottom=0;right=0;points=[[0,0.5],[1,0.5]];portConstraint=eastwest;" vertex="1" parent="mA5xvXXFpU_m65X2RSw0-75">
          <mxGeometry y="60" width="120" height="30" as="geometry" />
        </mxCell>
        <mxCell id="mA5xvXXFpU_m65X2RSw0-80" value="" style="shape=partialRectangle;connectable=0;fillColor=none;top=0;left=0;bottom=0;right=0;editable=1;overflow=hidden;" vertex="1" parent="mA5xvXXFpU_m65X2RSw0-79">
          <mxGeometry width="30" height="30" as="geometry" />
        </mxCell>
        <mxCell id="mA5xvXXFpU_m65X2RSw0-81" value="name" style="shape=partialRectangle;connectable=0;fillColor=none;top=0;left=0;bottom=0;right=0;align=left;spacingLeft=6;overflow=hidden;" vertex="1" parent="mA5xvXXFpU_m65X2RSw0-79">
          <mxGeometry x="30" width="90" height="30" as="geometry" />
        </mxCell>
        <mxCell id="mA5xvXXFpU_m65X2RSw0-82" value="" style="shape=partialRectangle;collapsible=0;dropTarget=0;pointerEvents=0;fillColor=none;top=0;left=0;bottom=0;right=0;points=[[0,0.5],[1,0.5]];portConstraint=eastwest;" vertex="1" parent="mA5xvXXFpU_m65X2RSw0-75">
          <mxGeometry y="90" width="120" height="30" as="geometry" />
        </mxCell>
        <mxCell id="mA5xvXXFpU_m65X2RSw0-83" value="" style="shape=partialRectangle;connectable=0;fillColor=none;top=0;left=0;bottom=0;right=0;editable=1;overflow=hidden;" vertex="1" parent="mA5xvXXFpU_m65X2RSw0-82">
          <mxGeometry width="30" height="30" as="geometry" />
        </mxCell>
        <mxCell id="mA5xvXXFpU_m65X2RSw0-84" value="surname" style="shape=partialRectangle;connectable=0;fillColor=none;top=0;left=0;bottom=0;right=0;align=left;spacingLeft=6;overflow=hidden;" vertex="1" parent="mA5xvXXFpU_m65X2RSw0-82">
          <mxGeometry x="30" width="90" height="30" as="geometry" />
        </mxCell>
        <mxCell id="mA5xvXXFpU_m65X2RSw0-85" value="" style="shape=partialRectangle;collapsible=0;dropTarget=0;pointerEvents=0;fillColor=none;top=0;left=0;bottom=0;right=0;points=[[0,0.5],[1,0.5]];portConstraint=eastwest;" vertex="1" parent="mA5xvXXFpU_m65X2RSw0-75">
          <mxGeometry y="120" width="120" height="30" as="geometry" />
        </mxCell>
        <mxCell id="mA5xvXXFpU_m65X2RSw0-86" value="FK" style="shape=partialRectangle;connectable=0;fillColor=none;top=0;left=0;bottom=0;right=0;editable=1;overflow=hidden;" vertex="1" parent="mA5xvXXFpU_m65X2RSw0-85">
          <mxGeometry width="30" height="30" as="geometry" />
        </mxCell>
        <mxCell id="mA5xvXXFpU_m65X2RSw0-87" value="cirt_id" style="shape=partialRectangle;connectable=0;fillColor=none;top=0;left=0;bottom=0;right=0;align=left;spacingLeft=6;overflow=hidden;" vertex="1" parent="mA5xvXXFpU_m65X2RSw0-85">
          <mxGeometry x="30" width="90" height="30" as="geometry" />
        </mxCell>
        <mxCell id="mA5xvXXFpU_m65X2RSw0-127" value="" style="shape=partialRectangle;collapsible=0;dropTarget=0;pointerEvents=0;fillColor=none;top=0;left=0;bottom=0;right=0;points=[[0,0.5],[1,0.5]];portConstraint=eastwest;" vertex="1" parent="mA5xvXXFpU_m65X2RSw0-75">
          <mxGeometry y="150" width="120" height="30" as="geometry" />
        </mxCell>
        <mxCell id="mA5xvXXFpU_m65X2RSw0-128" value="" style="shape=partialRectangle;connectable=0;fillColor=none;top=0;left=0;bottom=0;right=0;editable=1;overflow=hidden;" vertex="1" parent="mA5xvXXFpU_m65X2RSw0-127">
          <mxGeometry width="30" height="30" as="geometry" />
        </mxCell>
        <mxCell id="mA5xvXXFpU_m65X2RSw0-129" value="bakiye" style="shape=partialRectangle;connectable=0;fillColor=none;top=0;left=0;bottom=0;right=0;align=left;spacingLeft=6;overflow=hidden;" vertex="1" parent="mA5xvXXFpU_m65X2RSw0-127">
          <mxGeometry x="30" width="90" height="30" as="geometry" />
        </mxCell>
        <mxCell id="mA5xvXXFpU_m65X2RSw0-88" value="personel" style="shape=table;startSize=30;container=1;collapsible=1;childLayout=tableLayout;fixedRows=1;rowLines=0;fontStyle=1;align=center;resizeLast=1;" vertex="1" parent="1">
          <mxGeometry x="360" y="650" width="130" height="130" as="geometry" />
        </mxCell>
        <mxCell id="mA5xvXXFpU_m65X2RSw0-89" value="" style="shape=partialRectangle;collapsible=0;dropTarget=0;pointerEvents=0;fillColor=none;top=0;left=0;bottom=1;right=0;points=[[0,0.5],[1,0.5]];portConstraint=eastwest;" vertex="1" parent="mA5xvXXFpU_m65X2RSw0-88">
          <mxGeometry y="30" width="130" height="30" as="geometry" />
        </mxCell>
        <mxCell id="mA5xvXXFpU_m65X2RSw0-90" value="PK" style="shape=partialRectangle;connectable=0;fillColor=none;top=0;left=0;bottom=0;right=0;fontStyle=1;overflow=hidden;" vertex="1" parent="mA5xvXXFpU_m65X2RSw0-89">
          <mxGeometry width="30" height="30" as="geometry" />
        </mxCell>
        <mxCell id="mA5xvXXFpU_m65X2RSw0-91" value="personelid" style="shape=partialRectangle;connectable=0;fillColor=none;top=0;left=0;bottom=0;right=0;align=left;spacingLeft=6;fontStyle=5;overflow=hidden;" vertex="1" parent="mA5xvXXFpU_m65X2RSw0-89">
          <mxGeometry x="30" width="100" height="30" as="geometry" />
        </mxCell>
        <mxCell id="mA5xvXXFpU_m65X2RSw0-92" value="" style="shape=partialRectangle;collapsible=0;dropTarget=0;pointerEvents=0;fillColor=none;top=0;left=0;bottom=0;right=0;points=[[0,0.5],[1,0.5]];portConstraint=eastwest;" vertex="1" parent="mA5xvXXFpU_m65X2RSw0-88">
          <mxGeometry y="60" width="130" height="30" as="geometry" />
        </mxCell>
        <mxCell id="mA5xvXXFpU_m65X2RSw0-93" value="" style="shape=partialRectangle;connectable=0;fillColor=none;top=0;left=0;bottom=0;right=0;editable=1;overflow=hidden;" vertex="1" parent="mA5xvXXFpU_m65X2RSw0-92">
          <mxGeometry width="30" height="30" as="geometry" />
        </mxCell>
        <mxCell id="mA5xvXXFpU_m65X2RSw0-94" value="personelad" style="shape=partialRectangle;connectable=0;fillColor=none;top=0;left=0;bottom=0;right=0;align=left;spacingLeft=6;overflow=hidden;" vertex="1" parent="mA5xvXXFpU_m65X2RSw0-92">
          <mxGeometry x="30" width="100" height="30" as="geometry" />
        </mxCell>
        <mxCell id="mA5xvXXFpU_m65X2RSw0-95" value="" style="shape=partialRectangle;collapsible=0;dropTarget=0;pointerEvents=0;fillColor=none;top=0;left=0;bottom=0;right=0;points=[[0,0.5],[1,0.5]];portConstraint=eastwest;" vertex="1" parent="mA5xvXXFpU_m65X2RSw0-88">
          <mxGeometry y="90" width="130" height="30" as="geometry" />
        </mxCell>
        <mxCell id="mA5xvXXFpU_m65X2RSw0-96" value="" style="shape=partialRectangle;connectable=0;fillColor=none;top=0;left=0;bottom=0;right=0;editable=1;overflow=hidden;" vertex="1" parent="mA5xvXXFpU_m65X2RSw0-95">
          <mxGeometry width="30" height="30" as="geometry" />
        </mxCell>
        <mxCell id="mA5xvXXFpU_m65X2RSw0-97" value="personelsoyad" style="shape=partialRectangle;connectable=0;fillColor=none;top=0;left=0;bottom=0;right=0;align=left;spacingLeft=6;overflow=hidden;" vertex="1" parent="mA5xvXXFpU_m65X2RSw0-95">
          <mxGeometry x="30" width="100" height="30" as="geometry" />
        </mxCell>
        <mxCell id="mA5xvXXFpU_m65X2RSw0-101" value="products" style="shape=table;startSize=30;container=1;collapsible=1;childLayout=tableLayout;fixedRows=1;rowLines=0;fontStyle=1;align=center;resizeLast=1;" vertex="1" parent="1">
          <mxGeometry x="68" y="580" width="122" height="220" as="geometry" />
        </mxCell>
        <mxCell id="mA5xvXXFpU_m65X2RSw0-102" value="" style="shape=partialRectangle;collapsible=0;dropTarget=0;pointerEvents=0;fillColor=none;top=0;left=0;bottom=1;right=0;points=[[0,0.5],[1,0.5]];portConstraint=eastwest;" vertex="1" parent="mA5xvXXFpU_m65X2RSw0-101">
          <mxGeometry y="30" width="122" height="30" as="geometry" />
        </mxCell>
        <mxCell id="mA5xvXXFpU_m65X2RSw0-103" value="PK" style="shape=partialRectangle;connectable=0;fillColor=none;top=0;left=0;bottom=0;right=0;fontStyle=1;overflow=hidden;" vertex="1" parent="mA5xvXXFpU_m65X2RSw0-102">
          <mxGeometry width="30" height="30" as="geometry" />
        </mxCell>
        <mxCell id="mA5xvXXFpU_m65X2RSw0-104" value="productid" style="shape=partialRectangle;connectable=0;fillColor=none;top=0;left=0;bottom=0;right=0;align=left;spacingLeft=6;fontStyle=5;overflow=hidden;" vertex="1" parent="mA5xvXXFpU_m65X2RSw0-102">
          <mxGeometry x="30" width="92" height="30" as="geometry" />
        </mxCell>
        <mxCell id="mA5xvXXFpU_m65X2RSw0-105" value="" style="shape=partialRectangle;collapsible=0;dropTarget=0;pointerEvents=0;fillColor=none;top=0;left=0;bottom=0;right=0;points=[[0,0.5],[1,0.5]];portConstraint=eastwest;" vertex="1" parent="mA5xvXXFpU_m65X2RSw0-101">
          <mxGeometry y="60" width="122" height="30" as="geometry" />
        </mxCell>
        <mxCell id="mA5xvXXFpU_m65X2RSw0-106" value="" style="shape=partialRectangle;connectable=0;fillColor=none;top=0;left=0;bottom=0;right=0;editable=1;overflow=hidden;" vertex="1" parent="mA5xvXXFpU_m65X2RSw0-105">
          <mxGeometry width="30" height="30" as="geometry" />
        </mxCell>
        <mxCell id="mA5xvXXFpU_m65X2RSw0-107" value="productname" style="shape=partialRectangle;connectable=0;fillColor=none;top=0;left=0;bottom=0;right=0;align=left;spacingLeft=6;overflow=hidden;" vertex="1" parent="mA5xvXXFpU_m65X2RSw0-105">
          <mxGeometry x="30" width="92" height="30" as="geometry" />
        </mxCell>
        <mxCell id="mA5xvXXFpU_m65X2RSw0-108" value="" style="shape=partialRectangle;collapsible=0;dropTarget=0;pointerEvents=0;fillColor=none;top=0;left=0;bottom=0;right=0;points=[[0,0.5],[1,0.5]];portConstraint=eastwest;" vertex="1" parent="mA5xvXXFpU_m65X2RSw0-101">
          <mxGeometry y="90" width="122" height="30" as="geometry" />
        </mxCell>
        <mxCell id="mA5xvXXFpU_m65X2RSw0-109" value="" style="shape=partialRectangle;connectable=0;fillColor=none;top=0;left=0;bottom=0;right=0;editable=1;overflow=hidden;" vertex="1" parent="mA5xvXXFpU_m65X2RSw0-108">
          <mxGeometry width="30" height="30" as="geometry" />
        </mxCell>
        <mxCell id="mA5xvXXFpU_m65X2RSw0-110" value="reserve" style="shape=partialRectangle;connectable=0;fillColor=none;top=0;left=0;bottom=0;right=0;align=left;spacingLeft=6;overflow=hidden;" vertex="1" parent="mA5xvXXFpU_m65X2RSw0-108">
          <mxGeometry x="30" width="92" height="30" as="geometry" />
        </mxCell>
        <mxCell id="mA5xvXXFpU_m65X2RSw0-111" value="" style="shape=partialRectangle;collapsible=0;dropTarget=0;pointerEvents=0;fillColor=none;top=0;left=0;bottom=0;right=0;points=[[0,0.5],[1,0.5]];portConstraint=eastwest;" vertex="1" parent="mA5xvXXFpU_m65X2RSw0-101">
          <mxGeometry y="120" width="122" height="30" as="geometry" />
        </mxCell>
        <mxCell id="mA5xvXXFpU_m65X2RSw0-112" value="" style="shape=partialRectangle;connectable=0;fillColor=none;top=0;left=0;bottom=0;right=0;editable=1;overflow=hidden;" vertex="1" parent="mA5xvXXFpU_m65X2RSw0-111">
          <mxGeometry width="30" height="30" as="geometry" />
        </mxCell>
        <mxCell id="mA5xvXXFpU_m65X2RSw0-113" value="buyingprice" style="shape=partialRectangle;connectable=0;fillColor=none;top=0;left=0;bottom=0;right=0;align=left;spacingLeft=6;overflow=hidden;" vertex="1" parent="mA5xvXXFpU_m65X2RSw0-111">
          <mxGeometry x="30" width="92" height="30" as="geometry" />
        </mxCell>
        <mxCell id="mA5xvXXFpU_m65X2RSw0-130" value="" style="shape=partialRectangle;collapsible=0;dropTarget=0;pointerEvents=0;fillColor=none;top=0;left=0;bottom=0;right=0;points=[[0,0.5],[1,0.5]];portConstraint=eastwest;" vertex="1" parent="mA5xvXXFpU_m65X2RSw0-101">
          <mxGeometry y="150" width="122" height="30" as="geometry" />
        </mxCell>
        <mxCell id="mA5xvXXFpU_m65X2RSw0-131" value="" style="shape=partialRectangle;connectable=0;fillColor=none;top=0;left=0;bottom=0;right=0;editable=1;overflow=hidden;" vertex="1" parent="mA5xvXXFpU_m65X2RSw0-130">
          <mxGeometry width="30" height="30" as="geometry" />
        </mxCell>
        <mxCell id="mA5xvXXFpU_m65X2RSw0-132" value="saleprice" style="shape=partialRectangle;connectable=0;fillColor=none;top=0;left=0;bottom=0;right=0;align=left;spacingLeft=6;overflow=hidden;" vertex="1" parent="mA5xvXXFpU_m65X2RSw0-130">
          <mxGeometry x="30" width="92" height="30" as="geometry" />
        </mxCell>
        <mxCell id="mA5xvXXFpU_m65X2RSw0-149" value="" style="shape=partialRectangle;collapsible=0;dropTarget=0;pointerEvents=0;fillColor=none;top=0;left=0;bottom=0;right=0;points=[[0,0.5],[1,0.5]];portConstraint=eastwest;" vertex="1" parent="mA5xvXXFpU_m65X2RSw0-101">
          <mxGeometry y="180" width="122" height="30" as="geometry" />
        </mxCell>
        <mxCell id="mA5xvXXFpU_m65X2RSw0-150" value="FK" style="shape=partialRectangle;connectable=0;fillColor=none;top=0;left=0;bottom=0;right=0;editable=1;overflow=hidden;" vertex="1" parent="mA5xvXXFpU_m65X2RSw0-149">
          <mxGeometry width="30" height="30" as="geometry" />
        </mxCell>
        <mxCell id="mA5xvXXFpU_m65X2RSw0-151" value="category" style="shape=partialRectangle;connectable=0;fillColor=none;top=0;left=0;bottom=0;right=0;align=left;spacingLeft=6;overflow=hidden;" vertex="1" parent="mA5xvXXFpU_m65X2RSw0-149">
          <mxGeometry x="30" width="92" height="30" as="geometry" />
        </mxCell>
        <mxCell id="mA5xvXXFpU_m65X2RSw0-114" value="sale" style="shape=table;startSize=30;container=1;collapsible=1;childLayout=tableLayout;fixedRows=1;rowLines=0;fontStyle=1;align=center;resizeLast=1;" vertex="1" parent="1">
          <mxGeometry x="670" y="570" width="110" height="220.00000000000023" as="geometry" />
        </mxCell>
        <mxCell id="mA5xvXXFpU_m65X2RSw0-115" value="" style="shape=partialRectangle;collapsible=0;dropTarget=0;pointerEvents=0;fillColor=none;top=0;left=0;bottom=1;right=0;points=[[0,0.5],[1,0.5]];portConstraint=eastwest;" vertex="1" parent="mA5xvXXFpU_m65X2RSw0-114">
          <mxGeometry y="30" width="110" height="30" as="geometry" />
        </mxCell>
        <mxCell id="mA5xvXXFpU_m65X2RSw0-116" value="PK" style="shape=partialRectangle;connectable=0;fillColor=none;top=0;left=0;bottom=0;right=0;fontStyle=1;overflow=hidden;" vertex="1" parent="mA5xvXXFpU_m65X2RSw0-115">
          <mxGeometry width="30" height="30" as="geometry" />
        </mxCell>
        <mxCell id="mA5xvXXFpU_m65X2RSw0-117" value="saleid" style="shape=partialRectangle;connectable=0;fillColor=none;top=0;left=0;bottom=0;right=0;align=left;spacingLeft=6;fontStyle=5;overflow=hidden;" vertex="1" parent="mA5xvXXFpU_m65X2RSw0-115">
          <mxGeometry x="30" width="80" height="30" as="geometry" />
        </mxCell>
        <mxCell id="mA5xvXXFpU_m65X2RSw0-118" value="" style="shape=partialRectangle;collapsible=0;dropTarget=0;pointerEvents=0;fillColor=none;top=0;left=0;bottom=0;right=0;points=[[0,0.5],[1,0.5]];portConstraint=eastwest;" vertex="1" parent="mA5xvXXFpU_m65X2RSw0-114">
          <mxGeometry y="60" width="110" height="30" as="geometry" />
        </mxCell>
        <mxCell id="mA5xvXXFpU_m65X2RSw0-119" value="FK" style="shape=partialRectangle;connectable=0;fillColor=none;top=0;left=0;bottom=0;right=0;editable=1;overflow=hidden;" vertex="1" parent="mA5xvXXFpU_m65X2RSw0-118">
          <mxGeometry width="30" height="30" as="geometry" />
        </mxCell>
        <mxCell id="mA5xvXXFpU_m65X2RSw0-120" value="productid" style="shape=partialRectangle;connectable=0;fillColor=none;top=0;left=0;bottom=0;right=0;align=left;spacingLeft=6;overflow=hidden;" vertex="1" parent="mA5xvXXFpU_m65X2RSw0-118">
          <mxGeometry x="30" width="80" height="30" as="geometry" />
        </mxCell>
        <mxCell id="mA5xvXXFpU_m65X2RSw0-121" value="" style="shape=partialRectangle;collapsible=0;dropTarget=0;pointerEvents=0;fillColor=none;top=0;left=0;bottom=0;right=0;points=[[0,0.5],[1,0.5]];portConstraint=eastwest;" vertex="1" parent="mA5xvXXFpU_m65X2RSw0-114">
          <mxGeometry y="90" width="110" height="30" as="geometry" />
        </mxCell>
        <mxCell id="mA5xvXXFpU_m65X2RSw0-122" value="" style="shape=partialRectangle;connectable=0;fillColor=none;top=0;left=0;bottom=0;right=0;editable=1;overflow=hidden;" vertex="1" parent="mA5xvXXFpU_m65X2RSw0-121">
          <mxGeometry width="30" height="30" as="geometry" />
        </mxCell>
        <mxCell id="mA5xvXXFpU_m65X2RSw0-123" value="quantity" style="shape=partialRectangle;connectable=0;fillColor=none;top=0;left=0;bottom=0;right=0;align=left;spacingLeft=6;overflow=hidden;" vertex="1" parent="mA5xvXXFpU_m65X2RSw0-121">
          <mxGeometry x="30" width="80" height="30" as="geometry" />
        </mxCell>
        <mxCell id="mA5xvXXFpU_m65X2RSw0-124" value="" style="shape=partialRectangle;collapsible=0;dropTarget=0;pointerEvents=0;fillColor=none;top=0;left=0;bottom=0;right=0;points=[[0,0.5],[1,0.5]];portConstraint=eastwest;" vertex="1" parent="mA5xvXXFpU_m65X2RSw0-114">
          <mxGeometry y="120" width="110" height="30" as="geometry" />
        </mxCell>
        <mxCell id="mA5xvXXFpU_m65X2RSw0-125" value="FK" style="shape=partialRectangle;connectable=0;fillColor=none;top=0;left=0;bottom=0;right=0;editable=1;overflow=hidden;" vertex="1" parent="mA5xvXXFpU_m65X2RSw0-124">
          <mxGeometry width="30" height="30" as="geometry" />
        </mxCell>
        <mxCell id="mA5xvXXFpU_m65X2RSw0-126" value="customerid" style="shape=partialRectangle;connectable=0;fillColor=none;top=0;left=0;bottom=0;right=0;align=left;spacingLeft=6;overflow=hidden;" vertex="1" parent="mA5xvXXFpU_m65X2RSw0-124">
          <mxGeometry x="30" width="80" height="30" as="geometry" />
        </mxCell>
        <mxCell id="mA5xvXXFpU_m65X2RSw0-152" value="" style="shape=partialRectangle;collapsible=0;dropTarget=0;pointerEvents=0;fillColor=none;top=0;left=0;bottom=0;right=0;points=[[0,0.5],[1,0.5]];portConstraint=eastwest;" vertex="1" parent="mA5xvXXFpU_m65X2RSw0-114">
          <mxGeometry y="150" width="110" height="30" as="geometry" />
        </mxCell>
        <mxCell id="mA5xvXXFpU_m65X2RSw0-153" value="" style="shape=partialRectangle;connectable=0;fillColor=none;top=0;left=0;bottom=0;right=0;editable=1;overflow=hidden;" vertex="1" parent="mA5xvXXFpU_m65X2RSw0-152">
          <mxGeometry width="30" height="30" as="geometry" />
        </mxCell>
        <mxCell id="mA5xvXXFpU_m65X2RSw0-154" value="saledate" style="shape=partialRectangle;connectable=0;fillColor=none;top=0;left=0;bottom=0;right=0;align=left;spacingLeft=6;overflow=hidden;" vertex="1" parent="mA5xvXXFpU_m65X2RSw0-152">
          <mxGeometry x="30" width="80" height="30" as="geometry" />
        </mxCell>
        <mxCell id="mA5xvXXFpU_m65X2RSw0-155" value="" style="shape=partialRectangle;collapsible=0;dropTarget=0;pointerEvents=0;fillColor=none;top=0;left=0;bottom=0;right=0;points=[[0,0.5],[1,0.5]];portConstraint=eastwest;" vertex="1" parent="mA5xvXXFpU_m65X2RSw0-114">
          <mxGeometry y="180" width="110" height="30" as="geometry" />
        </mxCell>
        <mxCell id="mA5xvXXFpU_m65X2RSw0-156" value="FK" style="shape=partialRectangle;connectable=0;fillColor=none;top=0;left=0;bottom=0;right=0;editable=1;overflow=hidden;" vertex="1" parent="mA5xvXXFpU_m65X2RSw0-155">
          <mxGeometry width="30" height="30" as="geometry" />
        </mxCell>
        <mxCell id="mA5xvXXFpU_m65X2RSw0-157" value="personel" style="shape=partialRectangle;connectable=0;fillColor=none;top=0;left=0;bottom=0;right=0;align=left;spacingLeft=6;overflow=hidden;" vertex="1" parent="mA5xvXXFpU_m65X2RSw0-155">
          <mxGeometry x="30" width="80" height="30" as="geometry" />
        </mxCell>
        <mxCell id="mA5xvXXFpU_m65X2RSw0-158" value="" style="edgeStyle=entityRelationEdgeStyle;fontSize=12;html=1;endArrow=ERzeroToMany;startArrow=ERmandOne;endSize=10;startSize=10;targetPerimeterSpacing=0;" edge="1" parent="1" source="mA5xvXXFpU_m65X2RSw0-63">
          <mxGeometry width="100" height="100" relative="1" as="geometry">
            <mxPoint x="570" y="540" as="sourcePoint" />
            <mxPoint x="670" y="440" as="targetPoint" />
          </mxGeometry>
        </mxCell>
        <mxCell id="mA5xvXXFpU_m65X2RSw0-159" value="" style="edgeStyle=entityRelationEdgeStyle;fontSize=12;html=1;endArrow=ERzeroToMany;startArrow=ERmandOne;endSize=10;startSize=10;targetPerimeterSpacing=0;" edge="1" parent="1" source="mA5xvXXFpU_m65X2RSw0-102">
          <mxGeometry width="100" height="100" relative="1" as="geometry">
            <mxPoint x="477.9999999999998" y="550" as="sourcePoint" />
            <mxPoint x="670" y="645" as="targetPoint" />
          </mxGeometry>
        </mxCell>
        <mxCell id="mA5xvXXFpU_m65X2RSw0-160" value="" style="edgeStyle=entityRelationEdgeStyle;fontSize=12;html=1;endArrow=ERzeroToMany;startArrow=ERmandOne;endSize=10;startSize=10;targetPerimeterSpacing=0;" edge="1" parent="1" target="mA5xvXXFpU_m65X2RSw0-124">
          <mxGeometry width="100" height="100" relative="1" as="geometry">
            <mxPoint x="790" y="340" as="sourcePoint" />
            <mxPoint x="605" y="545" as="targetPoint" />
          </mxGeometry>
        </mxCell>
        <mxCell id="mA5xvXXFpU_m65X2RSw0-161" value="" style="edgeStyle=entityRelationEdgeStyle;fontSize=12;html=1;endArrow=ERzeroToMany;startArrow=ERmandOne;endSize=10;startSize=10;targetPerimeterSpacing=0;entryX=0;entryY=0.5;entryDx=0;entryDy=0;exitX=1;exitY=0.5;exitDx=0;exitDy=0;" edge="1" parent="1" source="mA5xvXXFpU_m65X2RSw0-89" target="mA5xvXXFpU_m65X2RSw0-155">
          <mxGeometry width="100" height="100" relative="1" as="geometry">
            <mxPoint x="270" y="831.88232421875" as="sourcePoint" />
            <mxPoint x="413" y="525" as="targetPoint" />
          </mxGeometry>
        </mxCell>
        <mxCell id="mA5xvXXFpU_m65X2RSw0-163" value="" style="edgeStyle=entityRelationEdgeStyle;fontSize=12;html=1;endArrow=ERzeroToMany;startArrow=ERmandOne;endSize=10;startSize=10;targetPerimeterSpacing=0;exitX=1;exitY=0.5;exitDx=0;exitDy=0;entryX=0;entryY=0.5;entryDx=0;entryDy=0;" edge="1" parent="1" source="mA5xvXXFpU_m65X2RSw0-2">
          <mxGeometry width="100" height="100" relative="1" as="geometry">
            <mxPoint x="200" y="350" as="sourcePoint" />
            <mxPoint x="70" y="769.9999999999998" as="targetPoint" />
          </mxGeometry>
        </mxCell>
      </root>
    </mxGraphModel>
  </diagram>
</mxfile>
